<?xml version="1.0" encoding="utf-8"?>
<!-- Generator: Adobe Illustrator 19.0.0, SVG Export Plug-In . SVG Version: 6.00 Build 0)  -->
<svg version="1.1" id="Layer_1" xmlns="http://www.w3.org/2000/svg" xmlns:xlink="http://www.w3.org/1999/xlink" x="0px" y="0px"
	 viewBox="0 0 141.7 141.7" style="enable-background:new 0 0 141.7 141.7;" xml:space="preserve">
<style type="text/css">
	.st0{fill:#001C33;}
</style>
<g id="XMLID_14_">
	<path id="XMLID_25_" class="st0" d="M70.9,82.3c6.3,0,11.5-5.1,11.5-11.5c0-2.5-0.8-4.8-2.2-6.7c-2.1-2.9-5.5-4.8-9.3-4.8
		s-7.2,1.9-9.3,4.8c-1.4,1.9-2.2,4.2-2.2,6.7C59.4,77.2,64.5,82.3,70.9,82.3L70.9,82.3z"/>
	<path id="XMLID_22_" class="st0" d="M95.9,56.8v-11h-1.4h-9.6v11H95.9z"/>
	<path id="XMLID_18_" class="st0" d="M70.9,13.6c-31.6,0-57.3,25.7-57.3,57.3s25.7,57.3,57.3,57.3s57.3-25.7,57.3-57.3
		C128.1,39.3,102.4,13.6,70.9,13.6L70.9,13.6z M103.4,64.2v26.7c0,6.9-5.6,12.6-12.6,12.6h-40c-6.9,0-12.6-5.6-12.6-12.6v-40
		c0-6.9,5.6-12.6,12.6-12.6h40c6.9,0,12.6,5.6,12.6,12.6V64.2z"/>
	<path id="XMLID_15_" class="st0" d="M88.7,70.9c0,9.8-8,17.8-17.8,17.8s-17.8-8-17.8-17.8c0-2.4,0.5-4.6,1.3-6.7h-9.7v26.7
		c0,3.4,2.8,6.2,6.2,6.2h40c3.4,0,6.2-2.8,6.2-6.2V64.2h-9.7C88.2,66.2,88.7,68.5,88.7,70.9L88.7,70.9z"/>
</g>
</svg>
