<?xml version="1.0" encoding="utf-8"?>
<!-- Generator: Adobe Illustrator 19.0.0, SVG Export Plug-In . SVG Version: 6.00 Build 0)  -->
<svg version="1.1" id="Layer_1" xmlns="http://www.w3.org/2000/svg" xmlns:xlink="http://www.w3.org/1999/xlink" x="0px" y="0px"
	 viewBox="0 0 300 300" style="enable-background:new 0 0 300 300;" xml:space="preserve">
<style type="text/css">
	.st0{clip-path:url(#XMLID_2_);fill:#001C33;}
	.st1{fill:#001C33;}
	.st2{clip-path:url(#XMLID_3_);fill:#001C33;}
</style>
<g id="XMLID_562_">
	<g id="XMLID_580_">
		<defs>
			<rect id="XMLID_581_" x="43.2" y="62.4" width="213.6" height="175.2"/>
		</defs>
		<clipPath id="XMLID_2_">
			<use xlink:href="#XMLID_581_"  style="overflow:visible;"/>
		</clipPath>
		<path id="XMLID_582_" class="st0" d="M250.5,200.1h-6.7V68.6c0-3.5-2.8-6.3-6.3-6.3H62.4c-3.5,0-6.3,2.8-6.3,6.3v131.4h-6.7
			c-3.5,0-6.3,2.8-6.3,6.3c0,17.3,14,31.3,31.3,31.3h151c17.3,0,31.3-14,31.3-31.3C256.8,202.9,254,200.1,250.5,200.1L250.5,200.1z
			 M68.6,74.9h162.7v125.2H68.6V74.9z M225.5,225.1h-151c-8.2,0-15.1-5.2-17.7-12.5h186.4C240.6,219.9,233.7,225.1,225.5,225.1
			L225.5,225.1z M225.5,225.1"/>
	</g>
	<path id="XMLID_577_" class="st1" d="M162.5,131.2c0,3.5-2.8,6.3-6.3,6.3c-3.5,0-6.3-2.8-6.3-6.3s2.8-6.3,6.3-6.3
		C159.7,125,162.5,127.8,162.5,131.2L162.5,131.2z M162.5,131.2"/>
	<path id="XMLID_572_" class="st1" d="M162.5,156.3c0,3.5-2.8,6.3-6.3,6.3c-3.5,0-6.3-2.8-6.3-6.3s2.8-6.3,6.3-6.3
		C159.7,150,162.5,152.8,162.5,156.3L162.5,156.3z M162.5,156.3"/>
	<path id="XMLID_566_" class="st1" d="M118.7,125h12.5c3.5,0,6.3-2.8,6.3-6.3c0-3.5-2.8-6.3-6.3-6.3h-12.5
		c-17.3,0-31.3,14-31.3,31.3c0,17.3,14,31.3,31.3,31.3h12.5c3.5,0,6.3-2.8,6.3-6.3s-2.8-6.3-6.3-6.3h-12.5
		c-10.4,0-18.8-8.4-18.8-18.8S108.4,125,118.7,125L118.7,125z M118.7,125"/>
	<path id="XMLID_563_" class="st1" d="M211.9,166l-25-50.1c-1.5-3.1-5.3-4.3-8.4-2.8c-3.1,1.5-4.3,5.3-2.8,8.4l25,50.1
		c1.5,3.1,5.3,4.3,8.4,2.8C212.2,172.8,213.5,169.1,211.9,166L211.9,166z M211.9,166"/>
</g>
<g id="XMLID_551_">
	<path id="XMLID_560_" class="st1" d="M1213,113h-19.4c-3.5,0-6.3,2.8-6.3,6.2c0,3.4,2.8,6.2,6.3,6.2h19.4c3.5,0,6.3-2.8,6.3-6.2
		C1219.4,115.8,1216.5,113,1213,113z"/>
	<path id="XMLID_559_" class="st1" d="M1182.8,148.5l12.7,12.4c2.5,2.4,6.5,2.4,8.9,0c2.5-2.4,2.5-6.4,0-8.8l-12.7-12.4
		c-2.5-2.4-6.5-2.4-8.9,0C1180.3,142.1,1180.3,146.1,1182.8,148.5z"/>
	<path id="XMLID_558_" class="st1" d="M1191.8,98.7l12.7-12.4c2.5-2.4,2.5-6.4,0-8.8c-2.5-2.4-6.5-2.4-8.9,0l-12.7,12.4
		c-2.5,2.4-2.5,6.4,0,8.8C1185.3,101.1,1189.3,101.2,1191.8,98.7z"/>
	<path id="XMLID_557_" class="st1" d="M1029.3,137.9h1.2c2.6,7.2,9.6,12.4,17.8,12.4h31.6V75.7h-31.6c-8.2,0-15.2,5.2-17.8,12.4
		h-1.2c-14,0-25.7,11.2-25.7,24.9S1015.3,137.9,1029.3,137.9z"/>
	<path id="XMLID_556_" class="st1" d="M1168.3,175.2V50.8c0-6.9-5.7-12.4-12.7-12.4c-7,0-12.7,5.6-12.7,12.4v124.4
		c0,6.9,5.7,12.4,12.7,12.4C1162.6,187.6,1168.3,182.1,1168.3,175.2z"/>
	<path id="XMLID_555_" class="st1" d="M1041.7,162.1v31.7c0,10.3,8.5,18.7,19,18.7s19-8.4,19-18.7v-31.1h-31.6
		C1045.9,162.7,1043.8,162.5,1041.7,162.1z"/>
	<path id="XMLID_553_" class="st1" d="M1092.4,150.9c12.2,1.4,23.6,6.5,32.4,15.2l5.6,5.5V54.4l-5.6,5.5
		c-8.8,8.7-20.2,13.8-32.4,15.2V150.9z"/>
</g>
<g id="XMLID_489_">
	<path id="XMLID_503_" class="st1" d="M1435.8,89.4h-73.2c-8.1,0-14.6,6.6-14.6,14.6v43.9c0,8.1,6.6,14.6,14.6,14.6h73.2
		c8.1,0,14.6-6.6,14.6-14.6V104C1450.4,95.9,1443.8,89.4,1435.8,89.4L1435.8,89.4z M1435.8,118.6l-34.2,16c-0.7,0.4-1.5,0.5-2.3,0.5
		s-1.6-0.1-2.3-0.5l-34.2-16v-12.1l36.6,17.1l36.6-17.1V118.6z M1435.8,118.6"/>
	<path id="XMLID_500_" class="st1" d="M1399.2,213.8c-48.4,0-87.8-39.4-87.8-87.8s39.4-87.8,87.8-87.8c20.3,0,40.2,7.1,55.9,20.1
		c3.1,2.6,3.6,7.2,1,10.3c-2.6,3.1-7.2,3.5-10.3,1c-13.1-10.8-29.6-16.7-46.6-16.7c-40.4,0-73.2,32.8-73.2,73.2s32.8,73.2,73.2,73.2
		c40.4,0,73.2-32.8,73.2-73.2c0-4,3.3-7.3,7.3-7.3c4,0,7.3,3.3,7.3,7.3C1487,174.4,1447.6,213.8,1399.2,213.8L1399.2,213.8z
		 M1399.2,213.8"/>
	<g id="XMLID_490_">
		<defs>
			<rect id="XMLID_492_" x="1311.4" y="38.1" width="175.6" height="175.6"/>
		</defs>
		<clipPath id="XMLID_3_">
			<use xlink:href="#XMLID_492_"  style="overflow:visible;"/>
		</clipPath>
		<path id="XMLID_497_" class="st2" d="M1459.6,43.6v32.9h-32.9L1459.6,43.6z M1459.6,43.6"/>
		<path id="XMLID_493_" class="st2" d="M1459.6,82.1h-32.9c-2.2,0-4.2-1.3-5.1-3.4c-0.8-2-0.4-4.4,1.2-6l32.9-32.9
			c1.6-1.6,3.9-2,6-1.2c2,0.9,3.4,2.9,3.4,5.1v32.9C1465,79.6,1462.6,82.1,1459.6,82.1L1459.6,82.1z M1439.9,71.1h14.2V56.9
			L1439.9,71.1z M1439.9,71.1"/>
	</g>
</g>
</svg>
