<?xml version="1.0" encoding="utf-8"?>
<!-- Generator: Adobe Illustrator 19.0.0, SVG Export Plug-In . SVG Version: 6.00 Build 0)  -->
<svg version="1.1" id="Layer_1" xmlns="http://www.w3.org/2000/svg" xmlns:xlink="http://www.w3.org/1999/xlink" x="0px" y="0px"
	 viewBox="0 0 300 300" style="enable-background:new 0 0 300 300;" xml:space="preserve">
<style type="text/css">
	.st0{fill:#001C33;}
	.st1{clip-path:url(#XMLID_52_);fill:#001C33;}
	.st2{clip-path:url(#XMLID_53_);fill:#001C33;}
	.st3{fill:#00AEEF;}
	.st4{clip-path:url(#XMLID_54_);fill:#00AEEF;}
	.st5{clip-path:url(#XMLID_55_);fill:#00AEEF;}
</style>
<g id="XMLID_587_">
	<path id="XMLID_588_" class="st0" d="M578.7,577.8h4.5v-14.7c0-2-2-3.7-4.5-3.7h-17.9v3.7h17.9V577.8z M556.3,581.5V552h-4.5v7.4
		h-8.9v3.7h8.9v18.4c0,2,2,3.7,4.5,3.7h22.4v7.4h4.5v-7.4h9v-3.7H556.3z M556.3,581.5"/>
</g>
<g id="XMLID_562_">
	<g id="XMLID_580_">
		<defs>
			<rect id="XMLID_581_" x="613.5" y="552" width="49.4" height="40.5"/>
		</defs>
		<clipPath id="XMLID_52_">
			<use xlink:href="#XMLID_581_"  style="overflow:visible;"/>
		</clipPath>
		<path id="XMLID_582_" class="st1" d="M661.5,583.8h-1.5v-30.4c0-0.8-0.6-1.4-1.4-1.4h-40.5c-0.8,0-1.4,0.6-1.4,1.4v30.4H615
			c-0.8,0-1.4,0.6-1.4,1.4c0,4,3.2,7.2,7.2,7.2h34.9c4,0,7.2-3.2,7.2-7.2C662.9,584.5,662.3,583.8,661.5,583.8L661.5,583.8z
			 M619.4,554.9H657v28.9h-37.6V554.9z M655.7,589.6h-34.9c-1.9,0-3.5-1.2-4.1-2.9h43.1C659.2,588.4,657.6,589.6,655.7,589.6
			L655.7,589.6z M655.7,589.6"/>
	</g>
	<path id="XMLID_577_" class="st0" d="M641.1,567.9c0,0.8-0.6,1.4-1.4,1.4c-0.8,0-1.4-0.6-1.4-1.4c0-0.8,0.6-1.4,1.4-1.4
		C640.5,566.5,641.1,567.1,641.1,567.9L641.1,567.9z M641.1,567.9"/>
	<path id="XMLID_572_" class="st0" d="M641.1,573.7c0,0.8-0.6,1.4-1.4,1.4c-0.8,0-1.4-0.6-1.4-1.4c0-0.8,0.6-1.4,1.4-1.4
		C640.5,572.3,641.1,572.9,641.1,573.7L641.1,573.7z M641.1,573.7"/>
	<path id="XMLID_566_" class="st0" d="M631,566.5h2.9c0.8,0,1.4-0.6,1.4-1.4c0-0.8-0.6-1.4-1.4-1.4H631c-4,0-7.2,3.2-7.2,7.2
		s3.2,7.2,7.2,7.2h2.9c0.8,0,1.4-0.6,1.4-1.4s-0.6-1.4-1.4-1.4H631c-2.4,0-4.3-1.9-4.3-4.3S628.6,566.5,631,566.5L631,566.5z
		 M631,566.5"/>
	<path id="XMLID_563_" class="st0" d="M652.5,576l-5.8-11.6c-0.4-0.7-1.2-1-1.9-0.6c-0.7,0.4-1,1.2-0.6,1.9l5.8,11.6
		c0.4,0.7,1.2,1,1.9,0.6C652.6,577.5,652.9,576.7,652.5,576L652.5,576z M652.5,576"/>
</g>
<g id="XMLID_551_">
	<path id="XMLID_560_" class="st0" d="M732.8,569.3h-4.5c-0.8,0-1.5,0.6-1.5,1.4c0,0.8,0.7,1.4,1.5,1.4h4.5c0.8,0,1.5-0.6,1.5-1.4
		C734.2,569.9,733.6,569.3,732.8,569.3z"/>
	<path id="XMLID_559_" class="st0" d="M725.8,577.5l2.9,2.9c0.6,0.6,1.5,0.6,2.1,0c0.6-0.6,0.6-1.5,0-2l-2.9-2.9
		c-0.6-0.6-1.5-0.6-2.1,0C725.2,576,725.2,576.9,725.8,577.5z"/>
	<path id="XMLID_558_" class="st0" d="M727.8,566l2.9-2.9c0.6-0.6,0.6-1.5,0-2c-0.6-0.6-1.5-0.6-2.1,0l-2.9,2.9
		c-0.6,0.6-0.6,1.5,0,2C726.3,566.5,727.3,566.5,727.8,566z"/>
	<path id="XMLID_557_" class="st0" d="M690.3,575h0.3c0.6,1.7,2.2,2.9,4.1,2.9h7.3v-17.3h-7.3c-1.9,0-3.5,1.2-4.1,2.9h-0.3
		c-3.2,0-6,2.6-6,5.8S687,575,690.3,575z"/>
	<path id="XMLID_556_" class="st0" d="M722.4,583.7v-28.8c0-1.6-1.3-2.9-2.9-2.9s-2.9,1.3-2.9,2.9v28.8c0,1.6,1.3,2.9,2.9,2.9
		S722.4,585.2,722.4,583.7z"/>
	<path id="XMLID_555_" class="st0" d="M693.2,580.6v7.3c0,2.4,2,4.3,4.4,4.3s4.4-1.9,4.4-4.3v-7.2h-7.3
		C694.1,580.8,693.6,580.7,693.2,580.6z"/>
	<path id="XMLID_553_" class="st0" d="M704.9,578c2.8,0.3,5.5,1.5,7.5,3.5l1.3,1.3v-27.1l-1.3,1.3c-2,2-4.7,3.2-7.5,3.5V578z"/>
</g>
<g id="XMLID_489_">
	<path id="XMLID_503_" class="st0" d="M784.3,563.8h-16.9c-1.9,0-3.4,1.5-3.4,3.4v10.2c0,1.9,1.5,3.4,3.4,3.4h16.9
		c1.9,0,3.4-1.5,3.4-3.4v-10.2C787.6,565.3,786.1,563.8,784.3,563.8L784.3,563.8z M784.3,570.6l-7.9,3.7c-0.2,0.1-0.4,0.1-0.5,0.1
		s-0.4,0-0.5-0.1l-7.9-3.7v-2.8l8.5,3.9l8.5-3.9V570.6z M784.3,570.6"/>
	<path id="XMLID_500_" class="st0" d="M775.8,592.6c-11.2,0-20.3-9.1-20.3-20.3s9.1-20.3,20.3-20.3c4.7,0,9.3,1.6,12.9,4.6
		c0.7,0.6,0.8,1.7,0.2,2.4c-0.6,0.7-1.7,0.8-2.4,0.2c-3-2.5-6.8-3.9-10.8-3.9c-9.3,0-16.9,7.6-16.9,16.9c0,9.3,7.6,16.9,16.9,16.9
		c9.3,0,16.9-7.6,16.9-16.9c0-0.9,0.8-1.7,1.7-1.7s1.7,0.8,1.7,1.7C796.1,583.5,787,592.6,775.8,592.6L775.8,592.6z M775.8,592.6"/>
	<g id="XMLID_490_">
		<defs>
			<rect id="XMLID_492_" x="755.5" y="552" width="40.6" height="40.6"/>
		</defs>
		<clipPath id="XMLID_53_">
			<use xlink:href="#XMLID_492_"  style="overflow:visible;"/>
		</clipPath>
		<path id="XMLID_497_" class="st2" d="M789.8,553.2v7.6h-7.6L789.8,553.2z M789.8,553.2"/>
		<path id="XMLID_493_" class="st2" d="M789.8,562.1h-7.6c-0.5,0-1-0.3-1.2-0.8c-0.2-0.5-0.1-1,0.3-1.4l7.6-7.6
			c0.4-0.4,0.9-0.5,1.4-0.3c0.5,0.2,0.8,0.7,0.8,1.2v7.6C791,561.5,790.5,562.1,789.8,562.1L789.8,562.1z M785.2,559.6h3.3v-3.3
			L785.2,559.6z M785.2,559.6"/>
	</g>
</g>
<g id="XMLID_46_">
	<path id="XMLID_47_" class="st3" d="M59.2,155.5h4.5v-14.7c0-2-2-3.7-4.5-3.7H41.3v3.7h17.9V155.5z M36.8,159.2v-29.5h-4.5v7.4
		h-8.9v3.7h8.9v18.4c0,2,2,3.7,4.5,3.7h22.4v7.4h4.5v-7.4h9v-3.7H36.8z M36.8,159.2"/>
</g>
<g id="XMLID_26_">
	<g id="XMLID_39_">
		<defs>
			<rect id="XMLID_40_" x="94" y="129.7" width="49.4" height="40.5"/>
		</defs>
		<clipPath id="XMLID_54_">
			<use xlink:href="#XMLID_40_"  style="overflow:visible;"/>
		</clipPath>
		<path id="XMLID_41_" class="st4" d="M142,161.6h-1.5v-30.4c0-0.8-0.6-1.4-1.4-1.4H98.5c-0.8,0-1.4,0.6-1.4,1.4v30.4h-1.5
			c-0.8,0-1.4,0.6-1.4,1.4c0,4,3.2,7.2,7.2,7.2h34.9c4,0,7.2-3.2,7.2-7.2C143.4,162.2,142.8,161.6,142,161.6L142,161.6z M99.9,132.6
			h37.6v28.9H99.9V132.6z M136.2,167.4h-34.9c-1.9,0-3.5-1.2-4.1-2.9h43.1C139.7,166.2,138.1,167.4,136.2,167.4L136.2,167.4z
			 M136.2,167.4"/>
	</g>
	<path id="XMLID_36_" class="st3" d="M121.6,145.7c0,0.8-0.6,1.4-1.4,1.4s-1.4-0.6-1.4-1.4s0.6-1.4,1.4-1.4S121.6,144.9,121.6,145.7
		L121.6,145.7z M121.6,145.7"/>
	<path id="XMLID_33_" class="st3" d="M121.6,151.4c0,0.8-0.6,1.4-1.4,1.4s-1.4-0.6-1.4-1.4c0-0.8,0.6-1.4,1.4-1.4
		S121.6,150.6,121.6,151.4L121.6,151.4z M121.6,151.4"/>
	<path id="XMLID_30_" class="st3" d="M111.5,144.2h2.9c0.8,0,1.4-0.6,1.4-1.4c0-0.8-0.6-1.4-1.4-1.4h-2.9c-4,0-7.2,3.2-7.2,7.2
		c0,4,3.2,7.2,7.2,7.2h2.9c0.8,0,1.4-0.6,1.4-1.4c0-0.8-0.6-1.4-1.4-1.4h-2.9c-2.4,0-4.3-1.9-4.3-4.3
		C107.2,146.2,109.1,144.2,111.5,144.2L111.5,144.2z M111.5,144.2"/>
	<path id="XMLID_27_" class="st3" d="M133,153.7l-5.8-11.6c-0.4-0.7-1.2-1-1.9-0.6c-0.7,0.4-1,1.2-0.6,1.9l5.8,11.6
		c0.4,0.7,1.2,1,1.9,0.6C133.1,155.3,133.4,154.4,133,153.7L133,153.7z M133,153.7"/>
</g>
<g id="XMLID_18_">
	<path id="XMLID_25_" class="st3" d="M213.3,147h-4.5c-0.8,0-1.5,0.6-1.5,1.4c0,0.8,0.7,1.4,1.5,1.4h4.5c0.8,0,1.5-0.6,1.5-1.4
		C214.7,147.6,214.1,147,213.3,147z"/>
	<path id="XMLID_24_" class="st3" d="M206.3,155.2l2.9,2.9c0.6,0.6,1.5,0.6,2.1,0c0.6-0.6,0.6-1.5,0-2l-2.9-2.9
		c-0.6-0.6-1.5-0.6-2.1,0C205.7,153.7,205.7,154.6,206.3,155.2z"/>
	<path id="XMLID_23_" class="st3" d="M208.4,143.7l2.9-2.9c0.6-0.6,0.6-1.5,0-2c-0.6-0.6-1.5-0.6-2.1,0l-2.9,2.9
		c-0.6,0.6-0.6,1.5,0,2S207.8,144.3,208.4,143.7z"/>
	<path id="XMLID_22_" class="st3" d="M170.8,152.8h0.3c0.6,1.7,2.2,2.9,4.1,2.9h7.3v-17.3h-7.3c-1.9,0-3.5,1.2-4.1,2.9h-0.3
		c-3.2,0-6,2.6-6,5.8S167.6,152.8,170.8,152.8z"/>
	<path id="XMLID_21_" class="st3" d="M202.9,161.4v-28.8c0-1.6-1.3-2.9-2.9-2.9c-1.6,0-2.9,1.3-2.9,2.9v28.8c0,1.6,1.3,2.9,2.9,2.9
		C201.6,164.3,202.9,163,202.9,161.4z"/>
	<path id="XMLID_20_" class="st3" d="M173.7,158.4v7.3c0,2.4,2,4.3,4.4,4.3s4.4-1.9,4.4-4.3v-7.2h-7.3
		C174.6,158.5,174.1,158.5,173.7,158.4z"/>
	<path id="XMLID_19_" class="st3" d="M185.4,155.8c2.8,0.3,5.5,1.5,7.5,3.5l1.3,1.3v-27.1l-1.3,1.3c-2,2-4.7,3.2-7.5,3.5V155.8z"/>
</g>
<g id="XMLID_1_">
	<path id="XMLID_14_" class="st3" d="M264.8,141.5h-16.9c-1.9,0-3.4,1.5-3.4,3.4v10.2c0,1.9,1.5,3.4,3.4,3.4h16.9
		c1.9,0,3.4-1.5,3.4-3.4v-10.2C268.2,143.1,266.6,141.5,264.8,141.5L264.8,141.5z M264.8,148.3l-7.9,3.7c-0.2,0.1-0.4,0.1-0.5,0.1
		s-0.4,0-0.5-0.1l-7.9-3.7v-2.8l8.5,3.9l8.5-3.9V148.3z M264.8,148.3"/>
	<path id="XMLID_11_" class="st3" d="M256.3,170.3c-11.2,0-20.3-9.1-20.3-20.3c0-11.2,9.1-20.3,20.3-20.3c4.7,0,9.3,1.6,12.9,4.6
		c0.7,0.6,0.8,1.7,0.2,2.4c-0.6,0.7-1.7,0.8-2.4,0.2c-3-2.5-6.8-3.9-10.8-3.9c-9.3,0-16.9,7.6-16.9,16.9c0,9.3,7.6,16.9,16.9,16.9
		c9.3,0,16.9-7.6,16.9-16.9c0-0.9,0.8-1.7,1.7-1.7c0.9,0,1.7,0.8,1.7,1.7C276.6,161.2,267.5,170.3,256.3,170.3L256.3,170.3z
		 M256.3,170.3"/>
	<g id="XMLID_2_">
		<defs>
			<rect id="XMLID_3_" x="236" y="129.7" width="40.6" height="40.6"/>
		</defs>
		<clipPath id="XMLID_55_">
			<use xlink:href="#XMLID_3_"  style="overflow:visible;"/>
		</clipPath>
		<path id="XMLID_8_" class="st5" d="M270.3,131v7.6h-7.6L270.3,131z M270.3,131"/>
		<path id="XMLID_4_" class="st5" d="M270.3,139.8h-7.6c-0.5,0-1-0.3-1.2-0.8c-0.2-0.5-0.1-1,0.3-1.4l7.6-7.6
			c0.4-0.4,0.9-0.5,1.4-0.3c0.5,0.2,0.8,0.7,0.8,1.2v7.6C271.5,139.3,271,139.8,270.3,139.8L270.3,139.8z M265.7,137.3h3.3V134
			L265.7,137.3z M265.7,137.3"/>
	</g>
</g>
</svg>
