<?xml version="1.0" encoding="utf-8"?>
<!-- Generator: Adobe Illustrator 19.0.0, SVG Export Plug-In . SVG Version: 6.00 Build 0)  -->
<svg version="1.1" id="Layer_1" xmlns="http://www.w3.org/2000/svg" xmlns:xlink="http://www.w3.org/1999/xlink" x="0px" y="0px"
	 viewBox="0 0 300 300" style="enable-background:new 0 0 300 300;" xml:space="preserve">
<style type="text/css">
	.st0{fill:#001C33;}
	.st1{clip-path:url(#XMLID_19_);fill:#001C33;}
	.st2{fill:#00AEEF;}
	.st3{clip-path:url(#XMLID_20_);fill:#00AEEF;}
</style>
<g id="XMLID_489_">
	<path id="XMLID_503_" class="st0" d="M1435.8,89.4h-73.2c-8.1,0-14.6,6.6-14.6,14.6v43.9c0,8.1,6.6,14.6,14.6,14.6h73.2
		c8.1,0,14.6-6.6,14.6-14.6V104C1450.4,95.9,1443.8,89.4,1435.8,89.4L1435.8,89.4z M1435.8,118.6l-34.2,16c-0.7,0.4-1.5,0.5-2.3,0.5
		s-1.6-0.1-2.3-0.5l-34.2-16v-12.1l36.6,17.1l36.6-17.1V118.6z M1435.8,118.6"/>
	<path id="XMLID_500_" class="st0" d="M1399.2,213.8c-48.4,0-87.8-39.4-87.8-87.8s39.4-87.8,87.8-87.8c20.3,0,40.2,7.1,55.9,20.1
		c3.1,2.6,3.6,7.2,1,10.3c-2.6,3.1-7.2,3.5-10.3,1c-13.1-10.8-29.6-16.7-46.6-16.7c-40.4,0-73.2,32.8-73.2,73.2s32.8,73.2,73.2,73.2
		c40.4,0,73.2-32.8,73.2-73.2c0-4,3.3-7.3,7.3-7.3c4,0,7.3,3.3,7.3,7.3C1487,174.4,1447.6,213.8,1399.2,213.8L1399.2,213.8z
		 M1399.2,213.8"/>
	<g id="XMLID_490_">
		<defs>
			<rect id="XMLID_492_" x="1311.4" y="38.1" width="175.6" height="175.6"/>
		</defs>
		<clipPath id="XMLID_19_">
			<use xlink:href="#XMLID_492_"  style="overflow:visible;"/>
		</clipPath>
		<path id="XMLID_497_" class="st1" d="M1459.6,43.6v32.9h-32.9L1459.6,43.6z M1459.6,43.6"/>
		<path id="XMLID_493_" class="st1" d="M1459.6,82.1h-32.9c-2.2,0-4.2-1.3-5.1-3.4c-0.8-2-0.4-4.4,1.2-6l32.9-32.9
			c1.6-1.6,3.9-2,6-1.2c2,0.9,3.4,2.9,3.4,5.1v32.9C1465,79.6,1462.6,82.1,1459.6,82.1L1459.6,82.1z M1439.9,71.1h14.2V56.9
			L1439.9,71.1z M1439.9,71.1"/>
	</g>
</g>
<g id="XMLID_1_">
	<path id="XMLID_14_" class="st2" d="M186.6,113.4h-73.2c-8.1,0-14.6,6.6-14.6,14.6V172c0,8.1,6.6,14.6,14.6,14.6h73.2
		c8.1,0,14.6-6.6,14.6-14.6V128C201.2,120,194.7,113.4,186.6,113.4L186.6,113.4z M186.6,142.7l-34.2,16c-0.7,0.4-1.5,0.5-2.3,0.5
		c-0.8,0-1.6-0.1-2.3-0.5l-34.2-16v-12.1l36.6,17.1l36.6-17.1V142.7z M186.6,142.7"/>
	<path id="XMLID_11_" class="st2" d="M150,237.8c-48.4,0-87.8-39.4-87.8-87.8s39.4-87.8,87.8-87.8c20.3,0,40.2,7.1,55.9,20.1
		c3.1,2.6,3.6,7.2,1,10.3c-2.6,3.1-7.2,3.5-10.3,1c-13.1-10.8-29.6-16.7-46.6-16.7c-40.4,0-73.2,32.8-73.2,73.2s32.8,73.2,73.2,73.2
		s73.2-32.8,73.2-73.2c0-4,3.3-7.3,7.3-7.3s7.3,3.3,7.3,7.3C237.8,198.4,198.4,237.8,150,237.8L150,237.8z M150,237.8"/>
	<g id="XMLID_2_">
		<defs>
			<rect id="XMLID_3_" x="62.2" y="62.2" width="175.6" height="175.6"/>
		</defs>
		<clipPath id="XMLID_20_">
			<use xlink:href="#XMLID_3_"  style="overflow:visible;"/>
		</clipPath>
		<path id="XMLID_8_" class="st3" d="M210.4,67.7v32.9h-32.9L210.4,67.7z M210.4,67.7"/>
		<path id="XMLID_4_" class="st3" d="M210.4,106.1h-32.9c-2.2,0-4.2-1.3-5.1-3.4c-0.8-2-0.4-4.4,1.2-6l32.9-32.9
			c1.6-1.6,3.9-2,6-1.2c2,0.9,3.4,2.9,3.4,5.1v32.9C215.9,103.6,213.4,106.1,210.4,106.1L210.4,106.1z M190.7,95.1h14.2V80.9
			L190.7,95.1z M190.7,95.1"/>
	</g>
</g>
</svg>
