<?xml version="1.0" encoding="utf-8"?>
<!-- Generator: Adobe Illustrator 19.0.0, SVG Export Plug-In . SVG Version: 6.00 Build 0)  -->
<svg version="1.1" id="Layer_1" xmlns="http://www.w3.org/2000/svg" xmlns:xlink="http://www.w3.org/1999/xlink" x="0px" y="0px"
	 viewBox="0 0 300 300" style="enable-background:new 0 0 300 300;" xml:space="preserve">
<style type="text/css">
	.st0{clip-path:url(#XMLID_2_);fill:#00AEEF;}
	.st1{fill:#00AEEF;}
	.st2{fill:#001C33;}
	.st3{clip-path:url(#XMLID_3_);fill:#001C33;}
</style>
<g id="XMLID_562_">
	<g id="XMLID_580_">
		<defs>
			<rect id="XMLID_581_" x="760" y="19.1" width="213.6" height="175.2"/>
		</defs>
		<clipPath id="XMLID_2_">
			<use xlink:href="#XMLID_581_"  style="overflow:visible;"/>
		</clipPath>
		<path id="XMLID_582_" class="st0" d="M967.3,156.8h-6.7V25.4c0-3.5-2.8-6.3-6.3-6.3H779.2c-3.5,0-6.3,2.8-6.3,6.3v131.4h-6.7
			c-3.5,0-6.3,2.8-6.3,6.3c0,17.3,14,31.3,31.3,31.3h151c17.3,0,31.3-14,31.3-31.3C973.6,159.6,970.8,156.8,967.3,156.8L967.3,156.8
			z M785.4,31.6h162.7v125.2H785.4V31.6z M942.3,181.8h-151c-8.2,0-15.1-5.2-17.7-12.5H960C957.4,176.6,950.5,181.8,942.3,181.8
			L942.3,181.8z M942.3,181.8"/>
	</g>
	<path id="XMLID_577_" class="st1" d="M879.3,88c0,3.5-2.8,6.3-6.3,6.3s-6.3-2.8-6.3-6.3c0-3.5,2.8-6.3,6.3-6.3S879.3,84.5,879.3,88
		L879.3,88z M879.3,88"/>
	<path id="XMLID_572_" class="st1" d="M879.3,113c0,3.5-2.8,6.3-6.3,6.3s-6.3-2.8-6.3-6.3c0-3.5,2.8-6.3,6.3-6.3
		S879.3,109.5,879.3,113L879.3,113z M879.3,113"/>
	<path id="XMLID_566_" class="st1" d="M835.5,81.7H848c3.5,0,6.3-2.8,6.3-6.3c0-3.5-2.8-6.3-6.3-6.3h-12.5
		c-17.3,0-31.3,14-31.3,31.3s14,31.3,31.3,31.3H848c3.5,0,6.3-2.8,6.3-6.3c0-3.5-2.8-6.3-6.3-6.3h-12.5c-10.4,0-18.8-8.4-18.8-18.8
		S825.1,81.7,835.5,81.7L835.5,81.7z M835.5,81.7"/>
	<path id="XMLID_563_" class="st1" d="M928.7,122.7l-25-50.1c-1.5-3.1-5.3-4.3-8.4-2.8c-3.1,1.5-4.3,5.3-2.8,8.4l25,50.1
		c1.5,3.1,5.3,4.3,8.4,2.8C929,129.6,930.2,125.8,928.7,122.7L928.7,122.7z M928.7,122.7"/>
</g>
<g id="XMLID_551_">
	<path id="XMLID_560_" class="st1" d="M251.6,137.6h-19.4c-3.5,0-6.3,2.8-6.3,6.2s2.8,6.2,6.3,6.2h19.4c3.5,0,6.3-2.8,6.3-6.2
		S255.1,137.6,251.6,137.6z"/>
	<path id="XMLID_559_" class="st1" d="M221.4,173.1l12.7,12.4c2.5,2.4,6.5,2.4,8.9,0s2.5-6.4,0-8.8l-12.7-12.4
		c-2.5-2.4-6.5-2.4-8.9,0C218.9,166.7,218.9,170.6,221.4,173.1z"/>
	<path id="XMLID_558_" class="st1" d="M230.3,123.3l12.7-12.4c2.5-2.4,2.5-6.4,0-8.8c-2.5-2.4-6.5-2.4-8.9,0l-12.7,12.4
		c-2.5,2.4-2.5,6.4,0,8.8C223.8,125.7,227.8,125.7,230.3,123.3z"/>
	<path id="XMLID_557_" class="st1" d="M67.8,162.4H69c2.6,7.2,9.6,12.4,17.8,12.4h31.6v-74.6H86.8c-8.2,0-15.2,5.2-17.8,12.4h-1.2
		c-14,0-25.7,11.2-25.7,24.9C42.1,151.3,53.9,162.4,67.8,162.4z"/>
	<path id="XMLID_556_" class="st1" d="M206.8,199.8V75.4c0-6.9-5.7-12.4-12.7-12.4s-12.7,5.6-12.7,12.4v124.4
		c0,6.9,5.7,12.4,12.7,12.4S206.8,206.6,206.8,199.8z"/>
	<path id="XMLID_555_" class="st1" d="M80.3,186.7v31.7c0,10.3,8.5,18.7,19,18.7s19-8.4,19-18.7v-31.1H86.6
		C84.4,187.3,82.3,187.1,80.3,186.7z"/>
	<path id="XMLID_553_" class="st1" d="M130.9,175.5c12.2,1.4,23.6,6.5,32.4,15.2l5.6,5.5V79l-5.6,5.5c-8.8,8.7-20.2,13.8-32.4,15.2
		V175.5z"/>
</g>
<g id="XMLID_489_">
	<path id="XMLID_503_" class="st2" d="M1435.8,89.4h-73.2c-8.1,0-14.6,6.6-14.6,14.6v43.9c0,8.1,6.6,14.6,14.6,14.6h73.2
		c8.1,0,14.6-6.6,14.6-14.6V104C1450.4,95.9,1443.8,89.4,1435.8,89.4L1435.8,89.4z M1435.8,118.6l-34.2,16c-0.7,0.4-1.5,0.5-2.3,0.5
		s-1.6-0.1-2.3-0.5l-34.2-16v-12.1l36.6,17.1l36.6-17.1V118.6z M1435.8,118.6"/>
	<path id="XMLID_500_" class="st2" d="M1399.2,213.8c-48.4,0-87.8-39.4-87.8-87.8s39.4-87.8,87.8-87.8c20.3,0,40.2,7.1,55.9,20.1
		c3.1,2.6,3.6,7.2,1,10.3c-2.6,3.1-7.2,3.5-10.3,1c-13.1-10.8-29.6-16.7-46.6-16.7c-40.4,0-73.2,32.8-73.2,73.2s32.8,73.2,73.2,73.2
		c40.4,0,73.2-32.8,73.2-73.2c0-4,3.3-7.3,7.3-7.3c4,0,7.3,3.3,7.3,7.3C1487,174.4,1447.6,213.8,1399.2,213.8L1399.2,213.8z
		 M1399.2,213.8"/>
	<g id="XMLID_490_">
		<defs>
			<rect id="XMLID_492_" x="1311.4" y="38.1" width="175.6" height="175.6"/>
		</defs>
		<clipPath id="XMLID_3_">
			<use xlink:href="#XMLID_492_"  style="overflow:visible;"/>
		</clipPath>
		<path id="XMLID_497_" class="st3" d="M1459.6,43.6v32.9h-32.9L1459.6,43.6z M1459.6,43.6"/>
		<path id="XMLID_493_" class="st3" d="M1459.6,82.1h-32.9c-2.2,0-4.2-1.3-5.1-3.4c-0.8-2-0.4-4.4,1.2-6l32.9-32.9
			c1.6-1.6,3.9-2,6-1.2c2,0.9,3.4,2.9,3.4,5.1v32.9C1465,79.6,1462.6,82.1,1459.6,82.1L1459.6,82.1z M1439.9,71.1h14.2V56.9
			L1439.9,71.1z M1439.9,71.1"/>
	</g>
</g>
</svg>
